<svg xmlns="http://www.w3.org/2000/svg" width="31" height="31" viewBox="0 0 31 31"><defs><style>.a{fill:#e85298;}</style></defs><path class="a" d="M25.743,0H5.18A5.186,5.186,0,0,0,0,5.193V25.885A5.17,5.17,0,0,0,5.18,31H25.82A5.186,5.186,0,0,0,31,25.808V5.193A5.3,5.3,0,0,0,25.743,0Zm.077,14.958h-1.7a.666.666,0,0,0-.618.62v7.828a.666.666,0,0,1-.618.62h-5.1a.666.666,0,0,1-.618-.62v-3.8a.666.666,0,0,0-.618-.62H14.688a.666.666,0,0,0-.618.62v3.8a.666.666,0,0,1-.618.62H8.426a.666.666,0,0,1-.618-.62V15.578a.666.666,0,0,0-.618-.62H5.1c-.387,0-.387-.155-.155-.387L15,5.658a.7.7,0,0,1,.928,0L19.249,8.6c.232.232.464.155.464-.233V6.433a.666.666,0,0,1,.618-.62h1.237a.666.666,0,0,1,.618.62V10.54a1.742,1.742,0,0,0,.464,1.085l3.324,2.945C26.207,14.725,26.13,14.958,25.82,14.958Z"/></svg>